<mxfile host="65bd71144e">
    <diagram id="d0IRkXyXCQKQJZQaPgFq" name="Page-1">
        <mxGraphModel dx="1289" dy="1376" grid="1" gridSize="10" guides="1" tooltips="1" connect="1" arrows="1" fold="1" page="1" pageScale="1" pageWidth="850" pageHeight="1100" math="0" shadow="0">
            <root>
                <mxCell id="0"/>
                <mxCell id="1" parent="0"/>
                <mxCell id="17" style="edgeStyle=none;html=1;exitX=0.5;exitY=1;exitDx=0;exitDy=0;entryX=0.5;entryY=0;entryDx=0;entryDy=0;" edge="1" parent="1" source="12" target="16">
                    <mxGeometry relative="1" as="geometry"/>
                </mxCell>
                <mxCell id="19" style="edgeStyle=none;html=1;exitX=0.5;exitY=1;exitDx=0;exitDy=0;entryX=0.5;entryY=0;entryDx=0;entryDy=0;" edge="1" parent="1" source="16" target="18">
                    <mxGeometry relative="1" as="geometry"/>
                </mxCell>
                <mxCell id="16" value="Master sends&lt;br&gt;GET_OP_STATUS &amp;lt;ADDR&amp;gt;" style="rounded=0;whiteSpace=wrap;html=1;" vertex="1" parent="1">
                    <mxGeometry x="224.5" y="400" width="156" height="40" as="geometry"/>
                </mxCell>
                <mxCell id="21" style="edgeStyle=none;html=1;exitX=1;exitY=0.5;exitDx=0;exitDy=0;entryX=0;entryY=0.5;entryDx=0;entryDy=0;" edge="1" parent="1" source="18" target="20">
                    <mxGeometry relative="1" as="geometry"/>
                </mxCell>
                <mxCell id="42" value="Else" style="edgeLabel;html=1;align=center;verticalAlign=middle;resizable=0;points=[];" vertex="1" connectable="0" parent="21">
                    <mxGeometry x="-0.2297" relative="1" as="geometry">
                        <mxPoint as="offset"/>
                    </mxGeometry>
                </mxCell>
                <mxCell id="24" style="edgeStyle=none;html=1;exitX=0.5;exitY=1;exitDx=0;exitDy=0;entryX=0.5;entryY=0;entryDx=0;entryDy=0;" edge="1" parent="1" source="18" target="23">
                    <mxGeometry relative="1" as="geometry"/>
                </mxCell>
                <mxCell id="43" value="Status is BOOT/BOOT_ERROR" style="edgeLabel;html=1;align=center;verticalAlign=middle;resizable=0;points=[];" vertex="1" connectable="0" parent="24">
                    <mxGeometry x="-0.4533" relative="1" as="geometry">
                        <mxPoint y="9" as="offset"/>
                    </mxGeometry>
                </mxCell>
                <mxCell id="18" value="" style="rhombus;whiteSpace=wrap;html=1;" vertex="1" parent="1">
                    <mxGeometry x="263" y="470" width="80" height="80" as="geometry"/>
                </mxCell>
                <mxCell id="20" value="Error (didn't enter)" style="rounded=0;whiteSpace=wrap;html=1;" vertex="1" parent="1">
                    <mxGeometry x="491" y="495" width="120" height="30" as="geometry"/>
                </mxCell>
                <mxCell id="28" style="edgeStyle=none;html=1;exitX=0.5;exitY=1;exitDx=0;exitDy=0;entryX=0.5;entryY=0;entryDx=0;entryDy=0;" edge="1" parent="1" source="23" target="25">
                    <mxGeometry relative="1" as="geometry"/>
                </mxCell>
                <mxCell id="23" value="Master sends&lt;br&gt;READ_SIGNATURE &amp;lt;ADDR&amp;gt;" style="rounded=0;whiteSpace=wrap;html=1;" vertex="1" parent="1">
                    <mxGeometry x="242" y="590" width="120" height="60" as="geometry"/>
                </mxCell>
                <mxCell id="27" style="edgeStyle=none;html=1;exitX=1;exitY=0.5;exitDx=0;exitDy=0;entryX=0;entryY=0.5;entryDx=0;entryDy=0;" edge="1" parent="1" source="25" target="26">
                    <mxGeometry relative="1" as="geometry"/>
                </mxCell>
                <mxCell id="30" style="edgeStyle=none;html=1;exitX=0.5;exitY=1;exitDx=0;exitDy=0;entryX=0.5;entryY=0;entryDx=0;entryDy=0;" edge="1" parent="1" source="25" target="29">
                    <mxGeometry relative="1" as="geometry"/>
                </mxCell>
                <mxCell id="25" value="" style="rhombus;whiteSpace=wrap;html=1;" vertex="1" parent="1">
                    <mxGeometry x="262" y="680" width="80" height="80" as="geometry"/>
                </mxCell>
                <mxCell id="26" value="Error (bad signature)" style="rounded=0;whiteSpace=wrap;html=1;" vertex="1" parent="1">
                    <mxGeometry x="490" y="705" width="120" height="30" as="geometry"/>
                </mxCell>
                <mxCell id="32" style="edgeStyle=none;html=1;exitX=0.5;exitY=1;exitDx=0;exitDy=0;entryX=0.5;entryY=0;entryDx=0;entryDy=0;" edge="1" parent="1" source="29" target="31">
                    <mxGeometry relative="1" as="geometry"/>
                </mxCell>
                <mxCell id="29" value="Master sends&lt;br&gt;WRITE_PAGE &amp;lt;ADDR&amp;gt; &amp;lt;MEM_ADDR&amp;gt; &amp;lt;DATA...&amp;gt;" style="rounded=0;whiteSpace=wrap;html=1;" vertex="1" parent="1">
                    <mxGeometry x="159" y="790" width="288" height="60" as="geometry"/>
                </mxCell>
                <mxCell id="34" style="edgeStyle=none;html=1;exitX=0.5;exitY=1;exitDx=0;exitDy=0;entryX=0.5;entryY=0;entryDx=0;entryDy=0;" edge="1" parent="1" source="31" target="33">
                    <mxGeometry relative="1" as="geometry"/>
                </mxCell>
                <mxCell id="31" value="Master sends&lt;br&gt;GET_WRITE_STATUS &amp;lt;ADDR&amp;gt;" style="rounded=0;whiteSpace=wrap;html=1;" vertex="1" parent="1">
                    <mxGeometry x="202" y="870" width="200" height="60" as="geometry"/>
                </mxCell>
                <mxCell id="36" style="edgeStyle=none;html=1;exitX=1;exitY=0.5;exitDx=0;exitDy=0;" edge="1" parent="1" source="33" target="35">
                    <mxGeometry relative="1" as="geometry"/>
                </mxCell>
                <mxCell id="37" value="Response is failure/No response" style="edgeLabel;html=1;align=center;verticalAlign=middle;resizable=0;points=[];" vertex="1" connectable="0" parent="36">
                    <mxGeometry x="-0.5946" y="-1" relative="1" as="geometry">
                        <mxPoint x="38" y="-21" as="offset"/>
                    </mxGeometry>
                </mxCell>
                <mxCell id="39" style="edgeStyle=none;html=1;exitX=0.5;exitY=1;exitDx=0;exitDy=0;entryX=0.5;entryY=0;entryDx=0;entryDy=0;" edge="1" parent="1" source="33" target="38">
                    <mxGeometry relative="1" as="geometry"/>
                </mxCell>
                <mxCell id="40" style="edgeStyle=none;html=1;exitX=0;exitY=0.5;exitDx=0;exitDy=0;entryX=0;entryY=0.5;entryDx=0;entryDy=0;" edge="1" parent="1" source="33" target="29">
                    <mxGeometry relative="1" as="geometry">
                        <Array as="points">
                            <mxPoint x="100" y="1000"/>
                            <mxPoint x="100" y="820"/>
                        </Array>
                    </mxGeometry>
                </mxCell>
                <mxCell id="41" value="Has more pages to write" style="edgeLabel;html=1;align=center;verticalAlign=middle;resizable=0;points=[];" vertex="1" connectable="0" parent="40">
                    <mxGeometry x="-0.5073" y="-1" relative="1" as="geometry">
                        <mxPoint x="19" y="-14" as="offset"/>
                    </mxGeometry>
                </mxCell>
                <mxCell id="33" value="" style="rhombus;whiteSpace=wrap;html=1;" vertex="1" parent="1">
                    <mxGeometry x="262" y="960" width="80" height="80" as="geometry"/>
                </mxCell>
                <mxCell id="35" value="Error (write error)" style="rounded=0;whiteSpace=wrap;html=1;" vertex="1" parent="1">
                    <mxGeometry x="490" y="985" width="120" height="30" as="geometry"/>
                </mxCell>
                <mxCell id="38" value="Flashing succeeded" style="rounded=0;whiteSpace=wrap;html=1;" vertex="1" parent="1">
                    <mxGeometry x="242" y="1070" width="120" height="20" as="geometry"/>
                </mxCell>
                <mxCell id="45" value="&lt;h1&gt;Signature&lt;/h1&gt;&lt;p&gt;What are the contents of the signature?&lt;/p&gt;&lt;p&gt;What do we check in the values?&lt;/p&gt;" style="text;html=1;strokeColor=none;fillColor=none;spacing=5;spacingTop=-20;whiteSpace=wrap;overflow=hidden;rounded=0;" vertex="1" parent="1">
                    <mxGeometry x="32" y="670" width="230" height="90" as="geometry"/>
                </mxCell>
                <mxCell id="47" value="Application to Boot entry" style="swimlane;horizontal=0;whiteSpace=wrap;html=1;" vertex="1" parent="1">
                    <mxGeometry width="628" height="270" as="geometry"/>
                </mxCell>
                <mxCell id="3" value="" style="rhombus;whiteSpace=wrap;html=1;" vertex="1" parent="47">
                    <mxGeometry x="262.5" y="80" width="80" height="80" as="geometry"/>
                </mxCell>
                <mxCell id="2" value="Master sends&lt;br&gt;BOOT_ENTRY &amp;lt;ADDR&amp;gt;" style="rounded=0;whiteSpace=wrap;html=1;" vertex="1" parent="47">
                    <mxGeometry x="200" y="10" width="205" height="40" as="geometry"/>
                </mxCell>
                <mxCell id="4" style="edgeStyle=none;html=1;exitX=0.5;exitY=1;exitDx=0;exitDy=0;entryX=0.5;entryY=0;entryDx=0;entryDy=0;" edge="1" parent="47" source="2" target="3">
                    <mxGeometry relative="1" as="geometry"/>
                </mxCell>
                <mxCell id="6" value="Error (rejected entry)" style="rounded=0;whiteSpace=wrap;html=1;" vertex="1" parent="47">
                    <mxGeometry x="490" y="105" width="120" height="30" as="geometry"/>
                </mxCell>
                <mxCell id="7" style="edgeStyle=none;html=1;exitX=1;exitY=0.5;exitDx=0;exitDy=0;entryX=0;entryY=0.5;entryDx=0;entryDy=0;" edge="1" parent="47" source="3" target="6">
                    <mxGeometry relative="1" as="geometry"/>
                </mxCell>
                <mxCell id="11" value="Response is error code" style="edgeLabel;html=1;align=center;verticalAlign=middle;resizable=0;points=[];" vertex="1" connectable="0" parent="7">
                    <mxGeometry x="-0.299" relative="1" as="geometry">
                        <mxPoint x="10" y="-15" as="offset"/>
                    </mxGeometry>
                </mxCell>
                <mxCell id="8" value="Wait &quot;bootEntryTime&quot;" style="rounded=0;whiteSpace=wrap;html=1;" vertex="1" parent="47">
                    <mxGeometry x="224" y="210" width="157" height="30" as="geometry"/>
                </mxCell>
                <mxCell id="9" style="edgeStyle=none;html=1;exitX=0.5;exitY=1;exitDx=0;exitDy=0;entryX=0.5;entryY=0;entryDx=0;entryDy=0;" edge="1" parent="47" source="3" target="8">
                    <mxGeometry relative="1" as="geometry"/>
                </mxCell>
                <mxCell id="10" value="Response is Serial number" style="edgeLabel;html=1;align=center;verticalAlign=middle;resizable=0;points=[];" vertex="1" connectable="0" parent="9">
                    <mxGeometry x="0.1667" y="1" relative="1" as="geometry">
                        <mxPoint x="-1" y="-5" as="offset"/>
                    </mxGeometry>
                </mxCell>
                <mxCell id="13" style="edgeStyle=none;html=1;exitX=0.5;exitY=1;exitDx=0;exitDy=0;entryX=0.5;entryY=0;entryDx=0;entryDy=0;" edge="1" parent="1" source="8" target="12">
                    <mxGeometry relative="1" as="geometry"/>
                </mxCell>
                <mxCell id="14" style="edgeStyle=none;html=1;exitX=0;exitY=0.5;exitDx=0;exitDy=0;entryX=0;entryY=0.5;entryDx=0;entryDy=0;" edge="1" parent="1" source="3" target="12">
                    <mxGeometry relative="1" as="geometry">
                        <Array as="points">
                            <mxPoint x="170" y="120"/>
                            <mxPoint x="170" y="330"/>
                        </Array>
                    </mxGeometry>
                </mxCell>
                <mxCell id="15" value="No response" style="edgeLabel;html=1;align=center;verticalAlign=middle;resizable=0;points=[];" vertex="1" connectable="0" parent="14">
                    <mxGeometry x="0.2467" y="2" relative="1" as="geometry">
                        <mxPoint x="38" y="-139" as="offset"/>
                    </mxGeometry>
                </mxCell>
                <mxCell id="48" value="Bootloader setup and identification" style="swimlane;horizontal=0;whiteSpace=wrap;html=1;startSize=23;" vertex="1" parent="1">
                    <mxGeometry y="280" width="630" height="490" as="geometry"/>
                </mxCell>
                <mxCell id="12" value="Master sends&lt;br&gt;COND_CHANGE_ADDR &amp;lt;ADDR&amp;gt; &amp;lt;SERIAL&amp;gt;" style="rounded=0;whiteSpace=wrap;html=1;" vertex="1" parent="48">
                    <mxGeometry x="224.5" y="20" width="157" height="60" as="geometry"/>
                </mxCell>
                <mxCell id="49" value="Writing the new application" style="swimlane;horizontal=0;whiteSpace=wrap;html=1;" vertex="1" parent="1">
                    <mxGeometry y="780" width="630" height="320" as="geometry"/>
                </mxCell>
            </root>
        </mxGraphModel>
    </diagram>
</mxfile>